<svg width="128" height="52" viewBox="0 0 355 146" fill="none" xmlns="http://www.w3.org/2000/svg">
<path d="M96.7499 103.707L101.533 99.8118L107.829 85.8003L114.037 65.2265L120.656 40.6789L133.824 26.6326L143.269 22.013L138.715 20.9892L165.178 15.8471L184.742 14.8438L214.214 15.5964L224.045 16.8512L232.824 16.1862L243.422 13.4371L245.195 11.6635L242.091 9.3134L241.781 5.18985L246.481 2.08604L251.846 3.9039L253.841 4.92381L260.005 3.28314L268.33 3.18095L269.208 3.62002L274.977 1.80138L279.492 1.29987L275.039 5.50118L280.495 4.8114L284.947 6.00287L287.33 7.69585L282.376 7.88404L287.629 11.265L290.422 14.4131L292.843 18.7444L295.078 19.8226L299.068 21.9953L300.709 26.252L299.822 29.6218L296.851 31.1294L294.856 31.0414L296.231 36.0962L292.417 41.1509L294.413 41.3727L291.132 46.7378C291.132 46.7378 283.638 52.8568 283.461 52.8568C283.283 52.8568 274.194 57.5126 274.194 57.5126L270.824 60.2617L263.815 71.281L262.122 71.4058L259.24 79.0955L267.326 90.155L279.958 92.1415L285.5 95.7332L276.411 104.424L271.841 99.8431L259.426 100.125L251.681 96.99L244.689 92.1302L232.274 101.317L226.832 107.413L228.072 111.977L219.544 117.683L215.59 116.686L208.925 120.298L195.357 126.949C195.357 126.949 178.722 132.545 178.221 132.545C177.719 132.545 166.996 132.356 166.996 132.356L151.32 130.099C151.32 130.099 129.645 130.673 129.29 130.407C128.935 130.141 104.991 127.835 104.991 127.835L91.5121 129.254L50.9264 140.508L25.593 142.64L10.4181 139.881L3.14419 135.116L2.26622 129.096L7.65909 124.832L23.7118 120.568L47.9165 116.429L74.1278 112.416L96.1162 106.45L96.7499 103.707Z" fill="#FBEFE2" stroke="black" stroke-width="1.26602"/>
<path d="M246.726 10.4279L238.506 13.5054L232.834 15.0937L226.254 15.7177C226.254 15.7177 214.195 14.9618 208.16 14.6965C200.355 14.3537 192.546 13.9859 184.733 13.959C178.228 13.9356 171.704 13.8719 165.224 14.4389C159.351 14.9536 153.478 15.7477 147.737 17.0861C142.709 18.2582 132.977 21.7789 132.977 21.7789L136.466 23.2627C136.466 23.2627 128.318 28.3435 124.794 31.5653C122.366 33.7857 120.401 36.4721 118.377 39.0658C117.155 40.6304 114.928 43.9191 114.928 43.9191L117.294 42.9564L114.125 48.1709L111.478 54.508L115.609 52.342L112.962 59.6422L110.275 68.025L108.429 75.4051L105.782 87.3576L102.734 95.7003L101.435 98.0227L99.5634 99.8943L95.6212 102.39L91.4636 104.404L89.9795 105.086L94.7122 106.249L96.1162 106.45L92.6667 110.381L90.9822 112.185L96.8782 111.825L98.0415 111.744C98.0415 111.744 97.4108 114.091 96.9984 115.233C96.7319 115.972 96.4432 116.706 96.0759 117.399C95.0577 119.324 92.5464 122.894 92.5464 122.894L88.6557 127.988L93.6695 127.547L98.5228 127.066L94.8324 131.438H103.135L114.727 131.237L133.702 122.964C133.702 122.964 124.645 123.067 120.137 123.454C115.181 123.879 105.349 125.466 105.349 125.466L112.519 119.15L103.416 120.08L101.651 120.201C101.651 120.201 104.563 116.469 106.142 114.258C108.575 110.851 112.241 103.279 112.241 103.279L100.448 107.733L99.1644 108.174C99.1644 108.174 103.301 104.582 104.98 102.439C105.883 101.288 107.226 98.6688 107.226 98.6688L103.697 100.634C103.697 100.634 106.209 96.7036 107.146 94.5775C109.379 89.5112 112.253 78.7721 112.253 78.7721L113.965 87.3142C113.965 87.3142 117.038 77.3134 118.92 72.4369L117.247 72.536C117.843 71.3993 122.112 64.309 122.337 63.7851C124.466 58.8332 124.205 57.3501 124.205 57.3501L120.912 61.3058C120.912 61.3058 122.795 56.4509 123.088 55.2442C123.46 53.7155 124.566 50.7623 124.566 50.7623L119.02 58.0212L124.723 45.4107L122.483 45.8644C122.483 45.8644 125.523 41.519 127.409 39.6758C129.215 37.9103 133.443 35.092 133.443 35.092L127.437 36.3207C127.437 36.3207 135.114 29.858 138.899 27.6775C143.318 25.1318 147.833 22.547 147.833 22.547L143.269 22.0131C143.269 22.0131 154.29 18.9171 159.945 18.156C164.596 17.5299 174.012 17.5885 174.012 17.5885L168.68 16.7982C168.68 16.7982 179.051 16.2241 184.241 16.2082C188.363 16.183 196.6 16.6009 196.6 16.6009L191.842 17.2953C191.842 17.2953 202.083 16.6295 207.072 16.6869C210.879 16.7305 218.457 17.5856 218.457 17.5856L217.008 19.2902L227.636 18.1924C227.636 18.1924 231.954 17.7185 234.057 17.1974C235.758 16.7758 239.03 15.4822 239.03 15.4822L235.26 19.7848L231.965 23.2746L236.28 23.137L242.607 16.329L248.348 12.4002L246.726 10.4279Z" fill="#4F3C2F"/>
<path d="M161.073 49.9287C161.073 49.9287 169.821 52.1005 173.567 54.4679C178.394 57.5186 182.681 61.6913 185.76 66.5006C188.305 70.4755 189.625 75.1935 190.573 79.817C191.316 83.4381 191.669 87.2189 191.215 90.8871C190.732 94.7813 189.221 98.5062 187.685 102.117C186.375 105.201 183.812 107.725 182.872 110.942C182.244 113.093 182.407 117.649 182.407 117.649L182.521 121.846L178.097 118.329L180.139 124.456C180.139 124.456 177.289 124.516 176.055 125.136C174.884 125.724 173.942 126.766 173.219 127.859C172.681 128.671 172.179 130.591 172.179 130.591L194.887 125.136C194.887 125.136 199.881 126.657 201.921 128.199C204.3 129.998 207.593 135.12 207.593 135.12C207.593 135.12 203.738 134.463 201.807 134.155C200.939 134.018 199.198 133.758 199.198 133.758L201.24 136.935L190.576 136.82L171.971 137.161H156.769L155.635 132.737L154.954 130.581L153.593 132.567C153.593 132.567 151.57 128.681 149.849 127.064C148.085 125.407 143.456 123.619 143.456 123.619L143.212 126.043C143.212 126.043 137.064 118.244 134.08 114.926C131.27 111.801 128.098 108.992 124.777 106.417C122.208 104.424 116.609 101.085 116.609 101.085C116.609 101.085 129.307 105.989 134.761 109.934C137.967 112.254 143.043 118.442 143.043 118.442L143.098 116.712C143.098 116.712 148.304 118.657 150.681 120.507C151.973 121.514 154.329 124.341 154.329 124.341L152.344 113.678C152.344 113.678 157.107 115.693 159.156 117.228C160.989 118.602 163.915 122.186 163.915 122.186L164.029 119.464L170.382 123.321C170.382 123.321 170.52 121.266 170.902 120.071C171.208 119.113 172.174 117.045 172.174 117.045L174.693 119.464L170.949 106.757L178.21 113.678C178.21 113.678 178.926 105.418 180.466 101.636C181.484 99.1357 184.958 94.8973 184.958 94.8973L183.995 100.352C183.995 100.352 187.34 93.2604 187.525 89.4425C187.743 84.9582 184.637 76.2867 184.637 76.2867L187.364 79.0141C187.364 79.0141 182.744 68.7547 179.973 65.364C175.913 60.3961 175.647 60.4037 172.303 57.4913C168.813 54.451 161.073 49.9283 161.073 49.9283V49.9287Z" fill="#4F3C2F"/>
<path d="M244.888 16.3417C244.888 16.3417 242.287 19.1907 241.399 20.8793C240.197 23.1657 239.121 25.6727 239.017 28.2536C238.968 29.4283 239.225 32.5279 239.225 32.5279L241.739 27.7995L241.058 34.7198C241.058 34.7198 241.661 39.9682 242.76 42.3205C243.707 44.349 246.844 47.6525 246.844 47.6525C246.844 47.6525 242.026 45.2167 240.491 43.1149C238.827 40.836 237.902 35.0551 237.902 35.0551L237.314 38.5769L235.272 29.0475L236.279 23.1366L240.142 17.9111L244.888 16.3417Z" fill="#4F3C2F"/>
<path d="M262.248 16.565C262.248 16.565 261.09 14.175 259.802 13.4765C258.64 12.8465 257.005 12.4649 255.854 13.1133C254.907 13.6464 254.457 14.9572 254.427 16.0433C254.399 17.057 254.978 18.0378 255.887 18.487C257.345 19.2075 259.486 18.907 260.688 18.1774C261.346 17.7784 262.248 16.565 262.248 16.565V16.565Z" fill="#4F3C2F"/>
<path d="M246.726 10.4278C246.726 10.4278 251.47 5.0738 254.616 3.5788C257.303 2.30182 260.439 2.23871 263.408 2.04702C265.58 1.90614 269.931 2.33118 269.931 2.33118C269.931 2.33118 273.588 0.685064 275.546 0.402634C277.663 0.0970593 281.956 0.685978 281.956 0.685978L277.815 4.54307C277.815 4.54307 280.85 3.65323 282.353 3.91905C284.183 4.24274 285.817 5.38248 287.281 6.5273C288.021 7.10608 289.16 8.627 289.16 8.627L285.757 8.74124C285.757 8.74124 288.4 10.6805 289.402 11.9526C291.068 14.0666 292.279 16.5534 293.173 19.0919C294.389 22.5475 295.258 29.8815 295.258 29.8815L298.462 36.4787L296.647 38.4642L294.946 40.3075L296.08 40.45C296.08 40.45 294.885 43.9986 293.811 45.4986C291.825 48.272 286.324 52.4754 286.324 52.4754C286.324 52.4754 277.362 57.9208 277.078 57.9208C276.794 57.9208 273.107 60.0761 273.107 60.0761L264.145 57.4102C264.145 57.4102 269.315 57.3399 271.84 56.8545C273.873 56.4633 277.759 54.971 277.759 54.971L285.643 49.7529C285.643 49.7529 289.241 46.782 290.748 45.0163C291.421 44.2287 292.478 42.4355 292.478 42.4355L289.018 42.5211C289.018 42.5211 292.671 39.1911 294.038 37.1605C294.492 36.4867 295.059 34.9482 295.059 34.9482C295.059 34.9482 293.614 32.2685 293.244 30.8077C292.371 27.3595 292.54 23.29 291.48 19.6914C290.798 17.3796 288.631 13.6302 288.631 13.6302L289.282 17.4086C289.282 17.4086 286.7 12.7978 284.842 10.967C283.856 9.99447 281.388 8.65812 281.388 8.65812L278.132 6.73981H283.867C283.867 6.73981 280.889 5.73979 278.894 5.85702C276.883 5.97609 272.917 6.73981 272.917 6.73981L276.848 2.52813C276.848 2.52813 272.917 3.53089 272.677 3.53089C272.437 3.53089 269.428 5.41603 269.428 5.41603C269.428 5.41603 264.355 4.61034 261.807 4.73428C259.647 4.83827 257.388 5.01794 255.43 5.93768C253.419 6.88208 250.296 10.1891 250.296 10.1891L248.348 12.4014L246.726 10.4278Z" fill="#4F3C2F"/>
<path d="M275.284 58.7795C275.284 58.7795 273.464 59.902 272.772 60.6958C270.927 62.8116 269.722 65.5525 268.2 67.9112C266.603 70.3878 263.412 75.1643 263.412 75.1643L262.69 72.7576L259.24 79.0947L255.871 83.507V80.6191C255.871 80.6191 254.613 83.1433 253.064 85.0167C249.922 88.8189 245.23 93.4799 244.961 93.6947C244.56 94.0156 239.256 98.6915 236.137 100.834C234.33 102.076 230.442 104.123 230.442 104.123L226.832 107.412L225.869 104.043L222.741 96.3419L229.146 91.0836L226.532 97.289C226.532 97.289 227.841 97.0908 228.428 96.8062C232.187 94.9869 238.384 89.2026 238.384 89.2026C238.384 89.2026 235.625 93.8227 234.024 95.9795C233.197 97.094 232.929 97.465 232.929 97.465C232.929 97.465 238.518 94.5245 242.394 91.1275C245.836 88.1116 249.103 84.8514 251.94 81.2612C254.341 78.2232 258.197 71.4743 258.197 71.4743L258.598 74.7631L262.614 67.0518C262.614 67.0518 262.829 68.1505 262.832 68.7068C262.832 69.3129 262.83 70.1706 262.83 70.1706C262.83 70.1706 266.888 63.404 269.457 60.1622C270.08 59.3773 271.519 57.9761 271.519 57.9761L275.284 58.7795Z" fill="#4F3C2F"/>
<path d="M210.468 52.7032C210.468 52.7032 216.645 60.4624 218.885 64.8493C219.847 66.7341 220.767 68.7526 220.991 70.8384C221.272 73.4432 220.736 78.6939 220.736 78.6939C220.736 78.6939 219.917 84.0599 220.535 87.7584C221.373 92.7734 225.869 104.043 225.869 104.043L228.476 109.297L234.493 108.976C234.493 108.976 236.738 109.298 237.621 109.939C239.632 111.399 241.833 115.835 241.913 116.036C241.993 116.237 242.194 117.8 242.194 117.8L238.183 115.274L234.613 114.11L232.607 114.311C232.607 114.311 234.785 115.167 235.696 115.875C237.431 117.226 240.028 120.849 240.028 120.849L240.669 121.732C240.669 121.732 237.58 121.422 236.057 121.13C234.183 120.769 230.51 119.713 230.51 119.713C230.51 119.713 231.854 120.819 232.728 121.531C233.511 122.169 234.536 122.452 235.355 123.043C236.059 123.552 237.3 124.78 237.3 124.78C237.3 124.78 234.314 125.294 232.808 125.261C229.694 125.192 227.686 124.674 223.569 123.862C222.692 123.69 221.136 122.734 221.136 122.734L215.59 116.685C215.59 116.685 209.153 110.871 205.61 108.367C203.55 106.912 201.359 105.853 199.575 104.175C198.004 102.699 195.567 99.1008 195.567 99.1008L198.687 99.8379L200.079 100.192C200.079 100.192 197.509 97.1922 196.509 95.4997C195.669 94.0771 195.022 92.5362 194.504 90.9674C194.198 90.0434 193.862 88.1196 193.862 88.1196C193.862 88.1196 195.76 91.0524 196.629 92.1708C198.658 94.7796 200.732 97.4088 203.247 99.5508C204.905 100.962 208.743 103.081 208.743 103.081L204.21 102.921L206.855 105.682L219.572 115.997L217.406 111.625C217.406 111.625 219.146 113.319 220.214 113.858C220.733 114.12 221.898 114.313 221.898 114.313C221.898 114.313 220.931 111.744 220.575 110.422C220.064 108.526 219.411 104.646 219.411 104.646L224.626 111.745C224.626 111.745 224.688 110.218 224.57 109.468C224.421 108.501 223.742 106.651 223.742 106.651L225.908 109.62L225.066 107.493L220.774 98.3491L217.247 88.2011L216.574 82.9641L218.383 86.8945L218.333 83.5058L218.087 79.3371L219.13 81.7439C219.13 81.7439 219.324 73.7899 218.328 69.9917C217.705 67.614 215.16 63.3335 215.16 63.3335L210.468 52.7032Z" fill="#4F3C2F"/>
<path d="M118.215 81.5609L113.924 91.369C113.924 91.369 117.059 88.5636 117.823 86.6795C118.466 85.0934 118.215 81.5609 118.215 81.5609Z" fill="#4F3C2F"/>
<path d="M123.417 76.509L119.887 86.6165C119.887 86.6165 122.799 83.5795 123.417 81.6428C123.937 80.0121 123.417 76.509 123.417 76.509Z" fill="#4F3C2F"/>
<path d="M125.246 66.9801C125.246 66.9801 121.494 73.1135 121.12 77.357C121.053 78.1306 120.421 80.7985 120.421 80.7985C120.421 80.7985 124.403 76.6471 125.246 73.999C125.957 71.7698 125.246 66.9801 125.246 66.9801V66.9801Z" fill="#4F3C2F"/>
<path d="M260.524 75.8862C260.524 75.8862 262.168 80.6195 263.452 82.9052C264.757 85.2302 268.172 89.4577 268.172 89.4577C268.172 89.4577 277.645 91.046 278.099 91.046C278.553 91.046 281.616 91.8964 281.616 91.8964C281.616 91.8964 286.801 95.3828 288.706 97.7959C290 99.4355 290.813 101.434 291.486 103.411C292.361 105.985 293.074 111.41 293.074 111.41L289.387 107.439L290.425 111.628L290.538 114.49L287.416 110.68L284.285 107.331L284.837 111.145L284.716 114.695C284.716 114.695 282.85 112.718 282.623 112.547C282.396 112.378 278.554 107.779 278.554 107.779C278.554 107.779 276.112 107.037 275.15 106.248C273.537 104.922 271.52 101.142 271.52 101.142C271.52 101.142 264.335 101.437 260.743 101.596C259.117 101.669 257.478 102.035 255.864 101.824C254.999 101.71 253.369 101.03 253.369 101.03L255.772 100.366C255.772 100.366 252.706 100.017 251.326 99.3846C248.515 98.0959 243.896 93.8262 243.896 93.8262L246.619 89.6284C246.619 89.6284 249.07 93.9029 251.156 95.2437C252.763 96.2765 255.157 97.689 256.999 98.1935C259.06 98.7578 263.409 98.0796 263.409 98.0796L261.934 99.1004L272.314 98.4199L275.661 100.916L273.989 97.0626C273.989 97.0626 275.019 97.3304 276.182 97.1833C276.783 97.1062 279.264 96.4086 279.264 96.4086L276.552 94.4166L278.371 94.3061L281.444 94.7323L276.171 93.1469C276.171 93.1469 278.78 92.9291 278.554 92.9291C278.326 92.9291 273.825 91.831 271.406 91.5009C269.624 91.2579 266.018 91.2175 266.018 91.2175L261.48 86.0555L263.182 86.7929C263.182 86.7929 260.093 83.8903 258.927 82.1419C258.29 81.1861 257.476 79.0165 257.476 79.0165L260.524 75.8862Z" fill="#4F3C2F"/>
<path d="M214.513 114.813C214.513 114.813 212.048 117.11 210.655 118.046C209.378 118.905 206.571 120.201 206.571 120.201C206.571 120.201 210.485 115.834 209.748 116.117C209.01 116.401 206.268 118.202 204.359 118.84C202.119 119.588 197.382 120.088 197.382 120.088C197.382 120.088 201.608 120.797 201.381 120.911C201.154 121.025 199.278 121.949 198.205 122.414C197.317 122.799 186.945 125.25 186.945 125.25L193.242 125.874L199.198 127.348L202.885 126.1L209.691 122.414L216.611 117.479L214.513 114.813Z" fill="#4F3C2F"/>
<path d="M255.013 4.88298C255.013 4.88298 251.694 1.90147 249.614 1.36328C247.798 0.893177 245.725 1.02771 243.999 1.76414C242.606 2.35885 241.323 3.46597 240.629 4.81255C240.099 5.84164 239.974 7.13284 240.229 8.26223C240.449 9.24654 241.145 10.0908 241.833 10.8291C242.329 11.3611 243.598 12.1128 243.598 12.1128L246.726 10.4278C246.726 10.4278 244.228 10.083 243.437 9.22445C242.892 8.63309 242.7 7.69698 242.795 6.89832C242.893 6.07837 243.352 5.24624 243.999 4.7327C244.99 3.94596 246.388 3.57527 247.649 3.68982C249.09 3.82063 251.539 5.61468 251.539 5.61468C251.539 5.61468 248.964 5.20542 247.689 5.37514C246.612 5.5177 244.6 6.41803 244.6 6.41803L248.491 6.89955L246.325 8.3433H249.935L255.013 4.88298Z" fill="#4F3C2F"/>
<path d="M292.843 18.744C292.843 18.744 295.718 19.2447 296.988 19.915C298.317 20.6167 299.613 21.5579 300.448 22.8078C301.186 23.9115 301.69 25.282 301.639 26.6084C301.588 27.9313 301.013 29.2799 300.164 30.2956C299.592 30.9797 298.738 31.4207 297.895 31.7135C297.087 31.9949 295.343 31.9973 295.343 31.9973L295.217 29.4599C295.217 29.4599 296.985 29.5956 297.61 29.0475C298.393 28.3619 298.985 27.3075 299.029 26.2681C299.07 25.2684 298.584 24.2131 297.894 23.4888C297.06 22.6129 294.604 21.9574 294.604 21.9574L293.243 21.7879L294.094 23.5846C294.094 23.5846 295.277 23.7664 295.779 24.0661C296.387 24.4297 296.902 24.9794 297.263 25.5897C297.427 25.8664 297.543 26.5126 297.543 26.5126C297.543 26.5126 296.578 25.7705 296.019 25.55C295.753 25.446 295.177 25.3907 295.177 25.3907C295.177 25.3907 295.751 26.1455 295.859 26.5937C295.931 26.8929 295.818 27.7166 295.818 27.5162C295.818 27.3153 294.574 25.9922 294.574 25.9922L293.171 23.3852L292.357 20.1738L292.843 18.744Z" fill="#4F3C2F"/>
<path d="M96.5173 105.487L76.1816 110.942L30.618 118.803C30.618 118.803 14.948 120.641 7.83574 123.777C5.3784 124.86 2.60975 126.108 1.25781 128.429C0.446243 129.823 0.451929 131.663 0.776288 133.242C1.24354 135.517 2.38036 137.831 4.14571 139.339C8.08196 142.701 13.6237 143.881 18.7455 144.633C27.2246 145.879 35.8964 144.125 44.4152 143.19C51.3106 142.432 58.1788 141.321 64.9514 139.82C75.0514 137.582 97.6402 130.876 97.6402 130.876L98.5228 127.066L94.6321 125.06L69.4761 121.63L88.4553 127.707C85.6875 129.192 73.7754 131.959 73.7754 131.959L48.7821 127.533L68.1601 133.242L49.3891 137.574L25.2432 134.606C25.2432 134.606 42.4098 138.457 41.7683 138.617C41.1265 138.776 31.4556 140.165 25.6443 140.141C20.6893 140.118 15.4491 140.304 10.884 138.376C7.90619 137.119 4.05218 135.433 3.34359 132.28C2.99206 130.716 4.27717 129.062 5.42936 127.948C7.90817 125.551 11.6045 124.807 14.895 123.777C25.8648 120.341 37.4296 119.211 48.7473 117.198C58.9874 115.377 69.4677 114.776 79.551 112.225C85.2201 110.791 97.3595 107.492 97.3595 107.492L96.5173 105.487Z" fill="#4F3C2F"/>
<path d="M116.268 128.54C117.725 124.082 129.139 127.863 134.079 127.973C139.02 128.082 140.397 128.166 143.779 128.142C147.161 128.118 153.221 127.714 153.221 127.714L158.044 133.973C158.044 133.973 148.306 133.509 141.275 133.246C134.027 132.974 114.727 131.237 114.727 131.237L116.268 128.54Z" fill="#4F3C2F"/>
<path d="M283.488 24.5094C283.488 24.5094 285.654 23.7285 286.737 23.9268C288.31 24.2147 289.483 25.0274 289.727 26.6083C289.911 27.7954 289.24 28.9079 288.139 29.3877C287.019 29.8757 285.663 29.712 284.751 28.8992C283.614 27.8864 283.488 24.5094 283.488 24.5094Z" fill="#4F3C2F"/>
<path d="M255.301 14.7691C256.004 15.2705 256.824 15.3251 257.134 14.8911C257.444 14.457 257.126 13.6987 256.424 13.1972C255.721 12.6957 254.901 12.6411 254.591 13.0752C254.281 13.5093 254.599 14.2676 255.301 14.7691Z" fill="white"/>
<path d="M284.556 25.1013C285.259 25.6028 286.079 25.6574 286.389 25.2233C286.699 24.7892 286.381 24.0309 285.679 23.5294C284.976 23.028 284.156 22.9734 283.846 23.4075C283.536 23.8415 283.854 24.5999 284.556 25.1013Z" fill="white"/>
<path d="M267.917 20.5817C266.538 20.6571 265.655 21.1306 264.939 21.9574C264.462 22.509 264.32 23.326 264.315 24.0559C264.315 24.9597 264.461 25.982 265.053 26.665C265.297 26.9466 265.847 27.1756 266.074 27.1191C266.301 27.0637 266.811 25.8997 266.811 25.8997L267.662 26.552C267.662 26.552 267.238 27.4742 267.208 27.9695C267.179 28.4693 267.276 28.993 267.492 29.4444C267.957 30.4138 269.582 31.9015 269.582 31.9015C269.582 31.9015 271.996 31.5418 273.051 30.9761C273.629 30.6659 274.005 30.202 274.299 29.6147C274.509 29.1906 274.639 28.2537 274.639 28.2537L275.717 28.1394L275.489 29.7277C275.489 29.7277 276.406 29.9262 276.794 29.783C277.494 29.5289 278.268 29.1077 278.722 28.4785C279.252 27.7459 279.612 26.7603 279.46 25.8694C279.28 24.82 278.549 23.9863 277.756 23.3C276.372 22.1014 274.494 21.4389 272.766 20.9911C270.903 20.5183 269.821 20.4766 267.916 20.5804L267.917 20.5817Z" fill="#4F3C2F"/>
<path d="M270.02 31.1157C270.02 31.1157 268.181 32.2786 267.139 32.5042C266.352 32.6738 265.52 32.5646 264.723 32.4489C263.847 32.3231 262.16 31.7516 262.16 31.7516L263.248 33.2658C263.248 33.2658 260.489 33.2374 259.177 32.8649C257.981 32.5243 255.828 31.2205 255.828 31.2205C255.828 31.2205 257.243 32.9303 257.994 33.5065C258.837 34.1536 259.443 34.4429 260.481 34.6698C261.632 34.9212 262.834 34.9376 264.011 34.8709C265.89 34.682 267.611 34.3925 269.185 33.3866L270.02 31.1157Z" fill="#4F3C2F"/>
<path d="M269.945 31.0891C269.945 31.0891 270.66 33.1447 271.335 33.9701C271.845 34.5934 272.564 35.0252 273.259 35.4314C274.025 35.8774 275.7 36.4817 275.7 36.4817L273.905 36.9886C273.905 36.9886 276.082 38.6847 277.34 39.2095C278.488 39.6876 280.985 40.0079 280.985 40.0079C280.985 40.0079 278.813 40.4649 277.867 40.4485C276.804 40.4233 276.15 40.279 275.197 39.8106C274.139 39.2905 273.189 38.5546 272.31 37.7698C270.957 36.4516 269.79 35.1537 269.185 33.387L269.945 31.0891Z" fill="#4F3C2F"/>
<path d="M273.559 38.3839C273.559 38.3839 272.504 41.315 271.554 42.5153C270.976 43.2457 270.395 44.011 269.586 44.4504C268.624 44.9734 267.424 45.1427 266.38 45.1625C265.07 45.1859 263.615 44.7686 262.598 43.9161C261.769 43.2222 261.383 42.0943 261.06 41.0634C260.774 40.1527 260.726 39.1725 260.737 38.2181C260.761 37.0134 261.228 34.6374 261.228 34.6374L262.468 34.2643C262.468 34.2643 261.809 37.707 262.096 39.3985C262.292 40.5521 262.645 41.8085 263.487 42.6206C263.773 42.8959 264.436 43.2129 264.596 43.0525C264.708 42.9418 267.435 36.1889 268.752 33.373C269.105 32.9052 269.523 33.5887 269.523 33.5887L265.911 43.5574C265.911 43.5574 266.795 43.8009 267.236 43.7392C268.101 43.6151 268.695 43.4861 269.629 42.6758C271.22 41.2942 272.757 37.1805 272.757 37.1805L273.559 38.3839Z" fill="#4F3C2F"/>
<path d="M16.6125 122.46C18.0744 122.653 43.3476 124.508 43.3476 124.508L27.1327 120.513L16.6125 122.46Z" fill="#4F3C2F"/>
<path d="M55.0368 115.561C56.4991 115.755 81.7725 117.609 81.7725 117.609L64.6431 114.378L55.0368 115.561Z" fill="#4F3C2F"/>
<path d="M20.5101 140.061L29.3343 140.22C29.3343 140.22 35.6196 133.54 39.121 130.594C40.6312 129.323 43.9341 127.145 43.9341 127.145L38.9801 133.883L37.7573 135.728L49.3891 137.573C49.3891 137.573 52.4173 133.506 54.2021 131.717C56.8716 129.041 62.9459 124.497 62.9459 124.497L57.5711 132.359C56.7545 133.53 55.7695 135.352 55.1303 136.627L66.3151 133.482L50.7524 128.187L73.7754 131.958L80.995 119.524L79.1501 130.353L88.4553 127.706L80.4334 124.417L91.2629 124.899L92.3859 131.155C92.3859 131.155 63.1866 138.054 62.5448 138.054C62.1101 138.054 41.2262 138.787 41.2262 138.787L36.1149 137.205L33.8265 139.819L20.8311 142.546L20.5101 140.061Z" fill="#4F3C2F"/>
<path d="M5.14111 124.904C6.26983 125.055 25.7802 126.485 25.7802 126.485L13.2625 123.401L5.14111 124.904Z" fill="#4F3C2F"/>
<path d="M238.674 83.8854L231.096 91.4485C231.096 91.4485 235.04 89.9824 236.439 88.5073C237.616 87.2656 238.674 83.8854 238.674 83.8854Z" fill="#4F3C2F"/>
<path d="M245.361 81.0822L238.384 89.2026C238.384 89.2026 242.204 87.4394 243.486 85.8618C244.565 84.5337 245.361 81.0822 245.361 81.0822Z" fill="#4F3C2F"/>
<path d="M250.545 72.8804C250.545 72.8804 244.811 77.2196 242.913 81.0331C242.567 81.7286 241.005 83.9816 241.005 83.9816C241.005 83.9816 246.228 81.5711 247.981 79.4141C249.457 77.5988 250.545 72.8804 250.545 72.8804V72.8804Z" fill="#4F3C2F"/>
<path d="M136.437 39.7586L144.015 32.1951C144.015 32.1951 140.071 33.6613 138.672 35.1362C137.494 36.3781 136.437 39.7586 136.437 39.7586Z" fill="#4F3C2F"/>
<path d="M129.75 42.5613L136.727 34.4409C136.727 34.4409 132.907 36.2042 131.625 37.7821C130.545 39.1099 129.75 42.5613 129.75 42.5613Z" fill="#4F3C2F"/>
<path d="M124.566 50.7635C124.566 50.7635 130.3 46.4241 132.198 42.6104C132.544 41.9149 134.105 39.6623 134.105 39.6623C134.105 39.6623 128.882 42.0728 127.13 44.2294C125.654 46.0451 124.566 50.7635 124.566 50.7635V50.7635Z" fill="#4F3C2F"/>
<path d="M295.644 133.353C302.772 133.562 307.264 133.765 307.264 133.765C307.264 133.765 323.405 133.614 331.148 129.991C336.573 127.453 340.988 123.99 343.824 119.227C347.293 113.402 348.906 106.044 348.014 99.3219C347.05 92.0552 343.609 84.483 338.03 79.7278C333.59 75.9425 327.447 74.1835 321.371 74.3512C316 74.4988 310.56 75.8587 306.425 79.0481C303.125 81.594 300.787 85.4301 299.769 89.635C299.044 92.6304 300.346 99.3834 300.346 99.3834C300.346 99.3834 296.326 93.8374 297.411 87.2241C298.321 81.6765 302.335 76.4423 307.054 73.3877C312.428 69.9102 319.555 68.5752 325.922 69.2309C331.563 69.8119 337.893 72.0914 342.169 75.8166C347.908 80.8158 351.945 88.1493 353.472 95.5844C355.04 103.217 354.037 111.717 350.808 118.808C348.245 124.437 343.701 128.993 338.291 132.507C336.028 133.977 333.747 134.865 331.405 135.434C327.258 136.443 322.922 136.45 318.165 136.909C298.624 138.796 295.644 133.353 295.644 133.353V133.353Z" fill="#4F3C2F"/>
<path d="M305.785 134.388C309.878 134.508 314.107 135.121 314.107 135.121C314.107 135.121 323.004 133.243 327.081 131.324C329.696 130.092 332.115 129.32 334.262 126.459C336.41 123.598 338.359 118.893 337.928 114.862C337.488 110.751 334.912 106.785 331.774 104.092C329.205 101.888 325.782 100.355 322.293 100.451C319.208 100.535 315.802 101.514 313.625 103.702C311.786 105.55 310.702 108.566 310.915 111.041C311.536 118.246 317.917 117.899 317.917 117.899C317.917 117.899 308.196 119.828 308.301 108.619C308.331 105.391 310.98 101.761 313.69 100.007C316.775 98.0099 321.313 97.2514 324.969 97.6278C328.208 97.9615 332.728 99.9015 335.184 102.041C338.479 104.911 340.803 107.697 342.049 111.344C343.239 114.827 343.129 118.797 342.298 122.382C341.373 126.375 339.747 131.281 336.64 133.298C333.039 135.637 326.902 136.651 321.153 137.137C316.051 137.568 309.375 137.274 305.269 137.12C294.196 136.709 305.785 134.385 305.785 134.385V134.388Z" fill="#4F3C2F"/>
<path d="M238.293 129.45C236.913 129.45 235.788 130.463 235.593 131.788H235.553V132.191V137.268H274.043L276.824 131.846H280.709L277.928 137.268H308.927V132.191V131.788H308.887C308.692 130.463 307.567 129.45 306.187 129.45H238.293Z" fill="#4F3C2F"/>
<path d="M278.301 115.024C275.439 115.024 272.695 116.053 270.671 117.885C268.648 119.717 267.511 122.201 267.511 124.792C267.514 126.954 268.31 129.055 269.774 130.764C271.237 132.473 273.286 133.694 275.599 134.236L276.824 131.846H280.709L279.344 134.506C282.012 134.271 284.487 133.147 286.289 131.351C288.091 129.556 289.09 127.218 289.093 124.792C289.093 123.509 288.813 122.239 288.271 121.054C287.729 119.868 286.934 118.792 285.932 117.884C284.93 116.977 283.74 116.258 282.431 115.767C281.121 115.276 279.718 115.024 278.301 115.024V115.024Z" fill="#4F3C2F"/>
<path d="M282.552 121.89V130.371H301.082V129.412C300.988 129.416 300.894 129.42 300.8 129.422C297.98 129.42 295.243 128.675 293.033 127.309C290.823 125.942 289.269 124.034 288.623 121.893L282.552 121.89Z" fill="#4F3C2F"/>
<path d="M274.036 121.799V130.28H255.505V129.321C255.599 129.325 255.693 129.329 255.787 129.331C258.607 129.329 261.344 128.584 263.554 127.218C265.764 125.851 267.318 123.943 267.965 121.802L274.036 121.799Z" fill="#4F3C2F"/>
<path d="M294.794 124.216L297.063 122.62H303.336L305.641 124.253V130.179H294.775L294.794 124.216Z" fill="#4F3C2F"/>
<path d="M303.331 115.953H297.085V123.512H303.331V115.953Z" fill="#4F3C2F"/>
<path d="M300.208 119.86C303.73 119.86 306.584 117.324 306.584 114.195C306.584 111.066 303.73 108.53 300.208 108.53C296.687 108.53 293.832 111.066 293.832 114.195C293.832 117.324 296.687 119.86 300.208 119.86Z" fill="#4F3C2F"/>
<path d="M257.862 130.24C257.862 130.24 254.614 129.126 253.401 127.983C252.495 127.13 251.734 125.984 251.519 124.758C251.331 123.682 251.815 122.585 252.111 121.533C252.557 119.945 253.141 118.384 253.884 116.911C255.159 114.387 256.951 112.243 258.453 109.763C259.242 108.459 258.382 107.22 257.48 106.315C255.834 104.661 254.433 104.085 252.637 103.87C251.635 103.75 250.341 103.782 249.689 104.559C248.061 106.853 247.319 109.072 246.252 111.429C245.216 113.704 243.927 115.868 243.027 118.201C242.355 119.946 241.644 121.719 241.415 123.576C241.272 124.733 241.312 126.658 241.747 128.109C242.066 129.174 243.371 131.023 243.371 131.023C243.371 131.023 247.757 131.584 248.026 131.53C248.295 131.477 256.625 131.745 256.894 131.584C257.163 131.423 257.862 130.24 257.862 130.24V130.24Z" fill="#4F3C2F"/>
</svg>
