<?xml version="1.0" encoding="UTF-8" standalone="no"?>
<svg
   xmlns:dc="http://purl.org/dc/elements/1.1/"
   xmlns:cc="http://creativecommons.org/ns#"
   xmlns:rdf="http://www.w3.org/1999/02/22-rdf-syntax-ns#"
   xmlns:svg="http://www.w3.org/2000/svg"
   xmlns="http://www.w3.org/2000/svg"
   id="svg1228"
   version="1.1"
   viewBox="0 0 210 297"
   height="297mm"
   width="210mm">
  <defs
     id="defs1222" />
  <metadata
     id="metadata1225">
    <rdf:RDF>
      <cc:Work
         rdf:about="">
        <dc:format>image/svg+xml</dc:format>
        <dc:type
           rdf:resource="http://purl.org/dc/dcmitype/StillImage" />
        <dc:title></dc:title>
      </cc:Work>
    </rdf:RDF>
  </metadata>
  <g
     id="layer1">
    <g
       transform="matrix(0.26458333,0,0,0.26458333,-112.02699,353.79855)"
       id="g5566"
       style="fill:#ffffff;stroke:#ffffff;stroke-opacity:1">
      <path
         style="color:#000000;font-style:normal;font-variant:normal;font-weight:normal;font-stretch:normal;font-size:medium;line-height:normal;font-family:sans-serif;font-variant-ligatures:normal;font-variant-position:normal;font-variant-caps:normal;font-variant-numeric:normal;font-variant-alternates:normal;font-feature-settings:normal;text-indent:0;text-align:start;text-decoration:none;text-decoration-line:none;text-decoration-style:solid;text-decoration-color:#000000;letter-spacing:normal;word-spacing:normal;text-transform:none;writing-mode:lr-tb;direction:ltr;text-orientation:mixed;dominant-baseline:auto;baseline-shift:baseline;text-anchor:start;white-space:normal;shape-padding:0;clip-rule:nonzero;display:inline;overflow:visible;visibility:visible;opacity:1;isolation:auto;mix-blend-mode:normal;color-interpolation:sRGB;color-interpolation-filters:linearRGB;solid-color:#000000;solid-opacity:1;vector-effect:none;fill:#5cb544;fill-opacity:1;fill-rule:evenodd;stroke:none;stroke-width:2.8440001;stroke-linecap:butt;stroke-linejoin:miter;stroke-miterlimit:4;stroke-dasharray:none;stroke-dashoffset:0;stroke-opacity:1;color-rendering:auto;image-rendering:auto;shape-rendering:auto;text-rendering:auto;enable-background:accumulate"
         d="m 399.06823,-1023.4354 c 0.50677,2.8461 -1.2631,6.0017 -4.41289,6.3634 -1.10564,0.1269 -2.19741,-0.1612 -3.09724,-0.8047 -0.89984,-0.6436 -1.61078,-1.7572 -1.59193,-3.0572 l 2.84402,0.042 c -0.004,0.3064 0.10778,0.4924 0.40206,0.7029 0.29418,0.2104 0.76582,0.3327 1.11998,0.2921 1.33723,-0.1536 2.17879,-1.6734 1.93546,-3.0405 -0.35899,-2.0163 -2.58447,-3.2132 -4.59617,-2.7797 -2.67736,0.577 -4.22297,3.5163 -3.5856,6.1689 0.63384,2.6377 3.16652,4.5188 5.89865,4.5849 l -0.0673,2.8417 c -3.97902,-0.096 -7.63968,-2.7829 -8.59615,-6.7628 -0.99184,-4.1276 1.39941,-8.6756 5.75025,-9.6132 3.48677,-0.7514 7.33096,1.3215 7.99688,5.0625 z"
         id="path5562" />
      <rect
         style="opacity:1;fill:#5cb544;fill-opacity:1;stroke:none;stroke-width:3.2179451;stroke-linecap:round;stroke-linejoin:round;stroke-miterlimit:4;stroke-dasharray:none;stroke-dashoffset:0;stroke-opacity:1;paint-order:markers fill stroke"
         id="rect5564"
         width="10.765624"
         height="2.828125"
         x="393.81137"
         y="-1014.9562" />
    </g>
  </g>
</svg>
