<svg width="20" height="17" viewBox="0 0 20 17" fill="none" xmlns="http://www.w3.org/2000/svg">
<path fill-rule="evenodd" clip-rule="evenodd" d="M14.4663 5.57917C14.973 8.42527 13.2031 11.5809 10.0534 11.9426C8.94772 12.0695 7.85596 11.7814 6.95613 11.1379C6.05629 10.4943 5.34533 9.38069 5.36418 8.08069L8.2082 8.12268C8.2042 8.42908 8.31599 8.61506 8.61027 8.82556C8.90445 9.03596 9.37611 9.15828 9.73027 9.11768C11.0675 8.96408 11.9091 7.44431 11.6657 6.07721C11.3067 4.06091 9.08123 2.86405 7.06953 3.29755C4.39217 3.87455 2.84656 6.81377 3.48393 9.46637C4.11777 12.1041 6.65045 13.9852 9.38258 14.0513L9.31529 16.893C5.33627 16.797 1.6756 14.1101 0.719129 10.1302C-0.272711 6.00259 2.11856 1.45463 6.4694 0.517032C9.95617 -0.234368 13.8003 1.83847 14.4663 5.57947V5.57917Z" fill="#5CB544"/>
<path d="M19.975 14.0585H9.20935V16.8866H19.975V14.0585Z" fill="#5CB544"/>
</svg>
